Coordinates
version=1
nRows=14
nColumns=24
inDegrees=yes

Units are S.I. units (second, meters, Newtons, ...)
Angles are in degrees.

endheader
time	pelvis_tilt	pelvis_list	pelvis_rotation	pelvis_tx	pelvis_ty	pelvis_tz	hip_flexion_r	hip_adduction_r	hip_rotation_r	knee_angle_r	ankle_angle_r	subtalar_angle_r	mtp_angle_r	hip_flexion_l	hip_adduction_l	hip_rotation_l	knee_angle_l	ankle_angle_l	subtalar_angle_l	mtp_angle_l	lumbar_extension	lumbar_bending	lumbar_rotation
      1.43000000	     -8.99464734	     -2.91399355	      0.02314007	     -0.57397725	      1.21213474	     -0.86586034	     -4.20361543	     10.69118519	      5.68109459	    -10.47550389	     12.66954982	     -2.14434783	      8.18616709	     34.91875717	      3.88178536	      8.48627191	     -7.75486579	     -1.35216521	     -2.67182723	      9.26320873	     -3.79020753	      3.54345864	      4.92473478
      1.43500000	     -9.02541993	     -2.91353543	     -0.08688797	     -0.56778155	      1.21162615	     -0.86580228	     -4.26212589	     10.65515291	      5.62587389	    -11.20003572	     12.85181730	     -1.57742885	      8.75624804	     34.99176429	      4.00287900	      8.57675118	     -8.40108685	     -1.90134343	     -2.68911828	      9.06040361	     -3.74184832	      3.47639674	      4.93536242
      1.44000000	     -9.00159458	     -2.89979651	     -0.16884686	     -0.56152998	      1.21121855	     -0.86574859	     -4.36516361	     10.60217091	      5.52165968	    -11.94217394	     12.92793484	     -1.04897531	      9.46588951	     35.01411577	      4.14838815	      8.66555091	     -9.10828296	     -2.51563316	     -2.78755077	      9.12282782	     -3.74365477	      3.37934445	      4.91708548
      1.44500000	     -8.94841635	     -2.87169585	     -0.22706510	     -0.55523439	      1.21091011	     -0.86572104	     -4.46155140	     10.52996290	      5.36959274	    -12.74319322	     12.94777659	     -0.53151213	     10.31066489	     35.00605092	      4.32178762	      8.79547896	     -9.85681362	     -3.23076821	     -3.06380930	      9.27885901	     -3.77255244	      3.25900868	      4.86918593
      1.45000000	     -8.91755442	     -2.81702626	     -0.31556287	     -0.54892210	      1.21066892	     -0.86560923	     -4.45572936	     10.43734152	      5.26234912	    -13.67986293	     12.96783716	     -0.03050294	     11.09090978	     35.01631875	      4.48710331	      8.86791012	    -10.62348772	     -4.05244484	     -3.33055038	      9.38187091	     -3.77331950	      3.09403984	      4.89149467
      1.45500000	     -8.85286757	     -2.74388474	     -0.35246073	     -0.54254683	      1.21052351	     -0.86556822	     -4.44026319	     10.31320006	      5.00774431	    -14.68572889	     12.93207416	      0.54012401	     12.05285177	     34.99541515	      4.69973542	      8.99294736	    -11.42501227	     -4.91853932	     -3.73307161	      9.49401678	     -3.80208995	      2.90524764	      4.83955266
      1.46000000	     -8.77062213	     -2.65538114	     -0.37862255	     -0.53614718	      1.21048786	     -0.86550995	     -4.38020167	     10.17214901	      4.71463134	    -15.78766912	     12.84259699	      1.10226236	     13.09727938	     34.95700072	      4.92119088	      9.11641332	    -12.25270801	     -5.80191119	     -4.18211773	      9.60376895	     -3.84407281	      2.68689494	      4.78932061
      1.46500000	     -8.65655560	     -2.55237106	     -0.37079946	     -0.52970379	      1.21055681	     -0.86548928	     -4.30098411	     10.00596776	      4.32317495	    -16.96870759	     12.69601903	      1.68362051	     14.28755044	     34.88907917	      5.17060953	      9.26406499	    -13.11277643	     -6.66067139	     -4.69431274	      9.71998986	     -3.91292481	      2.44795906	      4.71601112
      1.47000000	     -8.54232258	     -2.43507246	     -0.35731508	     -0.52324987	      1.21071834	     -0.86543544	     -4.13666547	      9.82324783	      3.89538292	    -18.28282607	     12.47828326	      2.25341694	     15.49629442	     34.82243103	      5.42113975	      9.38586537	    -13.99474732	     -7.47115271	     -5.14668414	      9.79595104	     -3.98230908	      2.17703524	      4.64055006
      1.47500000	     -8.41842533	     -2.29335545	     -0.32613052	     -0.51674173	      1.21098430	     -0.86538651	     -3.91012170	      9.60171618	      3.37704476	    -19.70859800	     12.18090001	      2.83852264	     16.77472844	     34.73210023	      5.69492971	      9.50402353	    -14.87934946	     -8.20997114	     -5.57129668	      9.84032586	     -4.05244577	      1.87553088	      4.54823551
      1.48000000	     -8.24196434	     -2.14441809	     -0.25843824	     -0.51020815	      1.21136926	     -0.86539725	     -3.68805011	      9.35205681	      2.76130143	    -21.20134588	     11.81061826	      3.40175145	     18.23320521	     34.59265854	      5.99761027	      9.64734800	    -15.80906174	     -8.82454863	     -6.04326994	      9.88809140	     -4.17538435	      1.56178257	      4.46604404
      1.48500000	     -8.12744383	     -1.97078721	     -0.20469905	     -0.50363935	      1.21180717	     -0.86535234	     -3.28336825	      9.06737462	      2.12915262	    -22.88619332	     11.30039913	      3.95956253	     19.51989697	     34.47382272	      6.29455998	      9.77232896	    -16.66840997	     -9.36214558	     -6.30787761	      9.88904787	     -4.22971240	      1.22151641	      4.33118383
      1.49000000	     -7.93527274	     -1.79138896	     -0.10490096	     -0.49706155	      1.21234761	     -0.86539840	     -2.91579874	      8.74021558	      1.36342356	    -24.62038821	     10.76423156	      4.52951680	     21.11766931	     34.28516063	      6.63639950	      9.92804450	    -17.58955111	     -9.73755972	     -6.70516561	      9.87068448	     -4.35857372	      0.87143313	      4.24987896
      1.49500000	     -7.73670560	     -1.57417090	     -0.01776370	     -0.49042802	      1.21302925	     -0.86539516	     -2.49092892	      8.35767327	      0.62902494	    -26.43768220	     10.00660296	      4.94554905	     22.80714073	     33.99949413	      6.98724098	     10.07324931	    -18.36787589	    -10.05406879	     -6.99308586	      9.84249251	     -4.49079572	      0.48655279	      4.12762858
